<?xml version="1.0" encoding="UTF-8" standalone="no"?><svg xmlns="http://www.w3.org/2000/svg" xmlns:xlink="http://www.w3.org/1999/xlink" clip-rule="evenodd" stroke-miterlimit="10" viewBox="0 0 1920 1080"><desc>SVG generated by Keynote</desc><defs></defs><g transform="matrix(1.00, 0.00, -0.00, -1.00, 0.0, 1080.0)"><g><clipPath id="clip0x608000ead0e0"><path d="M 0.0 1080.0 L 1920.0 1080.0 L 1920.0 0.0 L 0.0 0.0 Z M 0.0 1080.0 "></path></clipPath><g clip-path="url(#clip0x608000ead0e0)"><image xlink:href="../../AA67522E-33CB-4827-90AD-B35304285A38/assets/527288347077A8BC66C9A53B775387A8.jpeg" width="2048.00" height="1536.00" transform="matrix(0.94, 0.00, -0.00, -0.70, 0.0, 1080.0)"></image></g></g><path d="M 77.0 187.0 L 1870.0 187.0 L 1870.0 21.0 L 77.0 21.0 Z M 76.7 186.7 " fill="#D99719"></path><g><clipPath id="clip0x608000aa1d40"><path d="M 68.2 21.2 L 1878.5 21.2 L 1878.5 186.7 L 68.2 186.7 Z M 68.2 21.2 "></path></clipPath><g clip-path="url(#clip0x608000aa1d40)"><text xml:space="preserve" font-family="GillSans-Light,Gill Sans" font-size="50.0" fill="#FEFFFF" transform="matrix(1.00, 0.00, -0.00, -1.00, 82.4, 87.9)"> </text><text xml:space="preserve" font-family="GillSans-Light,Gill Sans" font-size="50.0" fill="#FEFFFF" transform="matrix(1.00, 0.00, -0.00, -1.00, 96.2, 87.9)">O</text><text xml:space="preserve" font-family="GillSans-Light,Gill Sans" font-size="50.0" fill="#FEFFFF" transform="matrix(1.00, 0.00, -0.00, -1.00, 137.4, 87.9)">u</text><text xml:space="preserve" font-family="GillSans-Light,Gill Sans" font-size="50.0" fill="#FEFFFF" transform="matrix(1.00, 0.00, -0.00, -1.00, 161.9, 87.9)">t</text><text xml:space="preserve" font-family="GillSans-Light,Gill Sans" font-size="50.0" fill="#FEFFFF" transform="matrix(1.00, 0.00, -0.00, -1.00, 177.0, 87.9)">p</text><text xml:space="preserve" font-family="GillSans-Light,Gill Sans" font-size="50.0" fill="#FEFFFF" transform="matrix(1.00, 0.00, -0.00, -1.00, 202.4, 87.9)">u</text><text xml:space="preserve" font-family="GillSans-Light,Gill Sans" font-size="50.0" fill="#FEFFFF" transform="matrix(1.00, 0.00, -0.00, -1.00, 226.9, 87.9)">t</text></g></g><path d="M 1198.1 469.6 L 1198.1 574.1 L 1487.1 573.1 L 1487.1 5.0 L 0.0 0.0 " fill="none" stroke="#595E5D" stroke-width="10.00" transform="matrix(1.00, 0.00, 0.00, -1.00, 409.9, 810.6)"></path><path d="M 77.0 767.0 L 1870.0 767.0 L 1870.0 601.0 L 77.0 601.0 Z M 76.7 766.8 " fill="#D99719"></path><g><clipPath id="clip0x608000ea88e0"><path d="M 68.2 601.4 L 1878.5 601.4 L 1878.5 766.8 L 68.2 766.8 Z M 68.2 601.4 "></path></clipPath><g clip-path="url(#clip0x608000ea88e0)"><text xml:space="preserve" font-family="GillSans-Light,Gill Sans" font-size="50.0" fill="#FEFFFF" transform="matrix(1.00, 0.00, -0.00, -1.00, 82.4, 668.1)"> </text><text xml:space="preserve" font-family="GillSans-Light,Gill Sans" font-size="50.0" fill="#FEFFFF" transform="matrix(1.00, 0.00, -0.00, -1.00, 96.2, 668.1)">I</text><text xml:space="preserve" font-family="GillSans-Light,Gill Sans" font-size="50.0" fill="#FEFFFF" transform="matrix(1.00, 0.00, -0.00, -1.00, 106.6, 668.1)">n</text><text xml:space="preserve" font-family="GillSans-Light,Gill Sans" font-size="50.0" fill="#FEFFFF" transform="matrix(1.00, 0.00, -0.00, -1.00, 131.2, 668.1)">p</text><text xml:space="preserve" font-family="GillSans-Light,Gill Sans" font-size="50.0" fill="#FEFFFF" transform="matrix(1.00, 0.00, -0.00, -1.00, 156.6, 668.1)">u</text><text xml:space="preserve" font-family="GillSans-Light,Gill Sans" font-size="50.0" fill="#FEFFFF" transform="matrix(1.00, 0.00, -0.00, -1.00, 181.2, 668.1)">t</text></g></g><g><clipPath id="clip0x608000ca7860"><path d="M 256.6 948.3 L 1663.4 948.3 L 1663.4 1080.0 L 256.6 1080.0 Z M 256.6 948.3 "></path></clipPath><g clip-path="url(#clip0x608000ca7860)"><text xml:space="preserve" font-family="GillSans-Light,Gill Sans" font-size="80.0" fill="#525252" transform="matrix(1.00, 0.00, -0.00, -1.00, 468.1, 971.9)">E</text><text xml:space="preserve" font-family="GillSans-Light,Gill Sans" font-size="80.0" fill="#525252" transform="matrix(1.00, 0.00, -0.00, -1.00, 507.3, 971.9)">N</text><text xml:space="preserve" font-family="GillSans-Light,Gill Sans" font-size="80.0" fill="#525252" transform="matrix(1.00, 0.00, -0.00, -1.00, 569.0, 971.9)">T</text><text xml:space="preserve" font-family="GillSans-Light,Gill Sans" font-size="80.0" fill="#525252" transform="matrix(1.00, 0.00, -0.00, -1.00, 614.9, 971.9)">E</text><text xml:space="preserve" font-family="GillSans-Light,Gill Sans" font-size="80.0" fill="#525252" transform="matrix(1.00, 0.00, -0.00, -1.00, 654.1, 971.9)">R</text><text xml:space="preserve" font-family="GillSans-Light,Gill Sans" font-size="100.0" fill="#525252" transform="matrix(1.00, 0.00, -0.00, -1.00, 699.9, 971.9)"> </text><text xml:space="preserve" font-family="GillSans-Light,Gill Sans" font-size="100.0" fill="#525252" transform="matrix(1.00, 0.00, -0.00, -1.00, 727.7, 971.9)">E</text><text xml:space="preserve" font-family="GillSans-Light,Gill Sans" font-size="80.0" fill="#525252" transform="matrix(1.00, 0.00, -0.00, -1.00, 776.7, 971.9)">X</text><text xml:space="preserve" font-family="GillSans-Light,Gill Sans" font-size="80.0" fill="#525252" transform="matrix(1.00, 0.00, -0.00, -1.00, 831.7, 971.9)">P</text><text xml:space="preserve" font-family="GillSans-Light,Gill Sans" font-size="80.0" fill="#525252" transform="matrix(1.00, 0.00, -0.00, -1.00, 872.5, 971.9)">E</text><text xml:space="preserve" font-family="GillSans-Light,Gill Sans" font-size="80.0" fill="#525252" transform="matrix(1.00, 0.00, -0.00, -1.00, 911.7, 971.9)">R</text><text xml:space="preserve" font-family="GillSans-Light,Gill Sans" font-size="80.0" fill="#525252" transform="matrix(1.00, 0.00, -0.00, -1.00, 955.2, 971.9)">T</text><text xml:space="preserve" font-family="GillSans-Light,Gill Sans" font-size="100.0" fill="#525252" transform="matrix(1.00, 0.00, -0.00, -1.00, 1001.1, 971.9)">E</text><text xml:space="preserve" font-family="GillSans-Light,Gill Sans" font-size="80.0" fill="#525252" transform="matrix(1.00, 0.00, -0.00, -1.00, 1050.1, 971.9)">X</text><text xml:space="preserve" font-family="GillSans-Light,Gill Sans" font-size="80.0" fill="#525252" transform="matrix(1.00, 0.00, -0.00, -1.00, 1105.1, 971.9)">T</text><text xml:space="preserve" font-family="GillSans-Light,Gill Sans" font-size="80.0" fill="#525252" transform="matrix(1.00, 0.00, -0.00, -1.00, 1151.0, 971.9)">R</text><text xml:space="preserve" font-family="GillSans-Light,Gill Sans" font-size="80.0" fill="#525252" transform="matrix(1.00, 0.00, -0.00, -1.00, 1196.9, 971.9)">A</text><text xml:space="preserve" font-family="GillSans-Light,Gill Sans" font-size="80.0" fill="#525252" transform="matrix(1.00, 0.00, -0.00, -1.00, 1246.3, 971.9)">C</text><text xml:space="preserve" font-family="GillSans-Light,Gill Sans" font-size="80.0" fill="#525252" transform="matrix(1.00, 0.00, -0.00, -1.00, 1300.4, 971.9)">T</text><text xml:space="preserve" font-family="GillSans-Light,Gill Sans" font-size="80.0" fill="#525252" transform="matrix(1.00, 0.00, -0.00, -1.00, 1340.3, 971.9)">O</text><text xml:space="preserve" font-family="GillSans-Light,Gill Sans" font-size="80.0" fill="#525252" transform="matrix(1.00, 0.00, -0.00, -1.00, 1406.1, 971.9)">R</text></g></g><path d="M 251.0 725.0 L 539.0 725.0 L 539.0 643.0 L 251.0 643.0 Z M 250.8 725.4 " fill="#7F8685"></path><g><clipPath id="clip0x608000cb69e0"><path d="M 242.2 641.6 L 547.5 641.6 L 547.5 727.0 L 242.2 727.0 Z M 242.2 641.6 "></path></clipPath><g clip-path="url(#clip0x608000cb69e0)"><text xml:space="preserve" font-family="GillSans-Light,Gill Sans" font-size="50.0" fill="#FEFFFF" transform="matrix(1.00, 0.00, -0.00, -1.00, 310.1, 667.7)">k</text><text xml:space="preserve" font-family="GillSans-Light,Gill Sans" font-size="50.0" fill="#FEFFFF" transform="matrix(1.00, 0.00, -0.00, -1.00, 330.9, 667.7)">e</text><text xml:space="preserve" font-family="GillSans-Light,Gill Sans" font-size="50.0" fill="#FEFFFF" transform="matrix(1.00, 0.00, -0.00, -1.00, 354.9, 667.7)">y</text><text xml:space="preserve" font-family="GillSans-Light,Gill Sans" font-size="50.0" fill="#FEFFFF" transform="matrix(1.00, 0.00, -0.00, -1.00, 375.7, 667.7)">w</text><text xml:space="preserve" font-family="GillSans-Light,Gill Sans" font-size="50.0" fill="#FEFFFF" transform="matrix(1.00, 0.00, -0.00, -1.00, 410.4, 667.7)">o</text><text xml:space="preserve" font-family="GillSans-Light,Gill Sans" font-size="50.0" fill="#FEFFFF" transform="matrix(1.00, 0.00, -0.00, -1.00, 437.5, 667.7)">r</text><text xml:space="preserve" font-family="GillSans-Light,Gill Sans" font-size="50.0" fill="#FEFFFF" transform="matrix(1.00, 0.00, -0.00, -1.00, 454.1, 667.7)">d</text></g></g><path d="M 864.0 725.0 L 1152.0 725.0 L 1152.0 643.0 L 864.0 643.0 Z M 864.1 725.4 " fill="#7F8685"></path><g><clipPath id="clip0x608000cba1c0"><path d="M 855.6 641.6 L 1160.8 641.6 L 1160.8 727.0 L 855.6 727.0 Z M 855.6 641.6 "></path></clipPath><g clip-path="url(#clip0x608000cba1c0)"><text xml:space="preserve" font-family="GillSans-Light,Gill Sans" font-size="50.0" fill="#FEFFFF" transform="matrix(1.00, 0.00, -0.00, -1.00, 964.7, 667.7)">U</text><text xml:space="preserve" font-family="GillSans-Light,Gill Sans" font-size="50.0" fill="#FEFFFF" transform="matrix(1.00, 0.00, -0.00, -1.00, 999.6, 667.7)">R</text><text xml:space="preserve" font-family="GillSans-Light,Gill Sans" font-size="50.0" fill="#FEFFFF" transform="matrix(1.00, 0.00, -0.00, -1.00, 1028.3, 667.7)">L</text></g></g><path d="M 1477.0 725.0 L 1757.0 725.0 L 1757.0 643.0 L 1477.0 643.0 Z M 1477.5 725.4 " fill="#7F8685"></path><g><clipPath id="clip0x608000cad320"><path d="M 1468.9 641.6 L 1765.7 641.6 L 1765.7 727.0 L 1468.9 727.0 Z M 1468.9 641.6 "></path></clipPath><g clip-path="url(#clip0x608000cad320)"><text xml:space="preserve" font-family="GillSans-Light,Gill Sans" font-size="50.0" fill="#FEFFFF" transform="matrix(1.00, 0.00, -0.00, -1.00, 1501.1, 667.7)">@</text><text xml:space="preserve" font-family="GillSans-Light,Gill Sans" font-size="50.0" fill="#FEFFFF" transform="matrix(1.00, 0.00, -0.00, -1.00, 1541.1, 667.7)">u</text><text xml:space="preserve" font-family="GillSans-Light,Gill Sans" font-size="50.0" fill="#FEFFFF" transform="matrix(1.00, 0.00, -0.00, -1.00, 1565.6, 667.7)">s</text><text xml:space="preserve" font-family="GillSans-Light,Gill Sans" font-size="50.0" fill="#FEFFFF" transform="matrix(1.00, 0.00, -0.00, -1.00, 1583.3, 667.7)">e</text><text xml:space="preserve" font-family="GillSans-Light,Gill Sans" font-size="50.0" fill="#FEFFFF" transform="matrix(1.00, 0.00, -0.00, -1.00, 1607.3, 667.7)">r</text><text xml:space="preserve" font-family="GillSans-Light,Gill Sans" font-size="50.0" fill="#FEFFFF" transform="matrix(1.00, 0.00, -0.00, -1.00, 1625.2, 667.7)">n</text><text xml:space="preserve" font-family="GillSans-Light,Gill Sans" font-size="50.0" fill="#FEFFFF" transform="matrix(1.00, 0.00, -0.00, -1.00, 1649.7, 667.7)">a</text><text xml:space="preserve" font-family="GillSans-Light,Gill Sans" font-size="50.0" fill="#FEFFFF" transform="matrix(1.00, 0.00, -0.00, -1.00, 1671.0, 667.7)">m</text><text xml:space="preserve" font-family="GillSans-Light,Gill Sans" font-size="50.0" fill="#FEFFFF" transform="matrix(1.00, 0.00, -0.00, -1.00, 1709.6, 667.7)">e</text></g></g><path d="M -0.3 0.5 L 59.7 0.5 L 64.7 0.5 " fill="none" stroke="#595E5D" stroke-width="10.00" transform="matrix(0.00, -1.00, -1.00, 0.00, 409.5, 816.7)"></path><path d="M 389.8 757.0 L 409.0 718.6 L 428.2 757.0 Z M 389.8 757.0 " fill="#595E5D"></path><path d="M 0.0 -0.5 L 463.0 -0.5 " fill="none" stroke="#595E5D" stroke-width="10.00" transform="matrix(1.00, 0.00, 0.00, -1.00, 1145.0, 236.5)"></path><path d="M 0.1 -0.4 L 114.1 -0.4 " fill="none" stroke="#595E5D" stroke-width="10.00" transform="matrix(0.00, -1.00, -1.00, 0.00, 1149.6, 352.1)"></path><path d="M 0.1 0.3 L 114.1 0.3 " fill="none" stroke="#595E5D" stroke-width="10.00" transform="matrix(0.00, -1.00, -1.00, 0.00, 842.3, 352.1)"></path><path d="M -0.1 -0.4 L 247.9 -0.4 " fill="none" stroke="#595E5D" stroke-width="10.00" transform="matrix(1.00, 0.00, 0.00, -1.00, 594.1, 239.6)"></path><path d="M -0.2 -0.3 L 337.8 -0.3 " fill="none" stroke="#595E5D" stroke-width="10.00" transform="matrix(0.00, -1.00, -1.00, 0.00, 598.7, 578.8)"></path><path d="M 256.0 187.0 L 561.0 187.0 L 561.0 21.0 L 256.0 21.0 Z M 256.1 186.7 " fill="#AA1802"></path><g><clipPath id="clip0x608000cb3920"><path d="M 247.5 21.2 L 569.5 21.2 L 569.5 186.7 L 247.5 186.7 Z M 247.5 21.2 "></path></clipPath><g clip-path="url(#clip0x608000cb3920)"><text xml:space="preserve" font-family="GillSans-Light,Gill Sans" font-size="50.0" fill="#FEFFFF" transform="matrix(1.00, 0.00, -0.00, -1.00, 283.9, 115.9)">l</text><text xml:space="preserve" font-family="GillSans-Light,Gill Sans" font-size="50.0" fill="#FEFFFF" transform="matrix(1.00, 0.00, -0.00, -1.00, 293.3, 115.9)">i</text><text xml:space="preserve" font-family="GillSans-Light,Gill Sans" font-size="50.0" fill="#FEFFFF" transform="matrix(1.00, 0.00, -0.00, -1.00, 302.7, 115.9)">s</text><text xml:space="preserve" font-family="GillSans-Light,Gill Sans" font-size="50.0" fill="#FEFFFF" transform="matrix(1.00, 0.00, -0.00, -1.00, 320.4, 115.9)">t</text><text xml:space="preserve" font-family="GillSans-Light,Gill Sans" font-size="50.0" fill="#FEFFFF" transform="matrix(1.00, 0.00, -0.00, -1.00, 335.5, 115.9)"> </text><text xml:space="preserve" font-family="GillSans-Light,Gill Sans" font-size="50.0" fill="#FEFFFF" transform="matrix(1.00, 0.00, -0.00, -1.00, 349.4, 115.9)">o</text><text xml:space="preserve" font-family="GillSans-Light,Gill Sans" font-size="50.0" fill="#FEFFFF" transform="matrix(1.00, 0.00, -0.00, -1.00, 376.5, 115.9)">f</text><text xml:space="preserve" font-family="GillSans-Light,Gill Sans" font-size="50.0" fill="#FEFFFF" transform="matrix(1.00, 0.00, -0.00, -1.00, 388.5, 115.9)"> </text><text xml:space="preserve" font-family="GillSans-Light,Gill Sans" font-size="50.0" fill="#FEFFFF" transform="matrix(1.00, 0.00, -0.00, -1.00, 402.4, 115.9)">t</text><text xml:space="preserve" font-family="GillSans-Light,Gill Sans" font-size="50.0" fill="#FEFFFF" transform="matrix(1.00, 0.00, -0.00, -1.00, 417.5, 115.9)">w</text><text xml:space="preserve" font-family="GillSans-Light,Gill Sans" font-size="50.0" fill="#FEFFFF" transform="matrix(1.00, 0.00, -0.00, -1.00, 452.9, 115.9)">i</text><text xml:space="preserve" font-family="GillSans-Light,Gill Sans" font-size="50.0" fill="#FEFFFF" transform="matrix(1.00, 0.00, -0.00, -1.00, 462.3, 115.9)">t</text><text xml:space="preserve" font-family="GillSans-Light,Gill Sans" font-size="50.0" fill="#FEFFFF" transform="matrix(1.00, 0.00, -0.00, -1.00, 477.3, 115.9)">t</text><text xml:space="preserve" font-family="GillSans-Light,Gill Sans" font-size="50.0" fill="#FEFFFF" transform="matrix(1.00, 0.00, -0.00, -1.00, 492.4, 115.9)">e</text><text xml:space="preserve" font-family="GillSans-Light,Gill Sans" font-size="50.0" fill="#FEFFFF" transform="matrix(1.00, 0.00, -0.00, -1.00, 516.4, 115.9)">r</text><text xml:space="preserve" font-family="GillSans-Light,Gill Sans" font-size="50.0" fill="#FEFFFF" transform="matrix(1.00, 0.00, -0.00, -1.00, 533.0, 115.9)"> </text><text xml:space="preserve" font-family="GillSans-Light,Gill Sans" font-size="50.0" fill="#FEFFFF" transform="matrix(1.00, 0.00, -0.00, -1.00, 333.1, 58.9)">e</text><text xml:space="preserve" font-family="GillSans-Light,Gill Sans" font-size="50.0" fill="#FEFFFF" transform="matrix(1.00, 0.00, -0.00, -1.00, 357.0, 58.9)">x</text><text xml:space="preserve" font-family="GillSans-Light,Gill Sans" font-size="50.0" fill="#FEFFFF" transform="matrix(1.00, 0.00, -0.00, -1.00, 381.0, 58.9)">p</text><text xml:space="preserve" font-family="GillSans-Light,Gill Sans" font-size="50.0" fill="#FEFFFF" transform="matrix(1.00, 0.00, -0.00, -1.00, 406.5, 58.9)">e</text><text xml:space="preserve" font-family="GillSans-Light,Gill Sans" font-size="50.0" fill="#FEFFFF" transform="matrix(1.00, 0.00, -0.00, -1.00, 430.4, 58.9)">r</text><text xml:space="preserve" font-family="GillSans-Light,Gill Sans" font-size="50.0" fill="#FEFFFF" transform="matrix(1.00, 0.00, -0.00, -1.00, 451.1, 58.9)">t</text><text xml:space="preserve" font-family="GillSans-Light,Gill Sans" font-size="50.0" fill="#FEFFFF" transform="matrix(1.00, 0.00, -0.00, -1.00, 466.2, 58.9)">s</text></g></g><path d="M 690.0 526.0 L 995.0 526.0 L 995.0 303.0 L 690.0 303.0 Z M 689.9 526.3 " fill="#D99719"></path><g><clipPath id="clip0x608000abea20"><path d="M 681.3 303.2 L 1003.3 303.2 L 1003.3 526.3 L 681.3 526.3 Z M 681.3 303.2 "></path></clipPath><g clip-path="url(#clip0x608000abea20)"><text xml:space="preserve" font-family="GillSans-Light,Gill Sans" font-size="50.0" fill="#FEFFFF" transform="matrix(1.00, 0.00, -0.00, -1.00, 717.7, 455.6)">l</text><text xml:space="preserve" font-family="GillSans-Light,Gill Sans" font-size="50.0" fill="#FEFFFF" transform="matrix(1.00, 0.00, -0.00, -1.00, 727.1, 455.6)">i</text><text xml:space="preserve" font-family="GillSans-Light,Gill Sans" font-size="50.0" fill="#FEFFFF" transform="matrix(1.00, 0.00, -0.00, -1.00, 736.5, 455.6)">s</text><text xml:space="preserve" font-family="GillSans-Light,Gill Sans" font-size="50.0" fill="#FEFFFF" transform="matrix(1.00, 0.00, -0.00, -1.00, 754.2, 455.6)">t</text><text xml:space="preserve" font-family="GillSans-Light,Gill Sans" font-size="50.0" fill="#FEFFFF" transform="matrix(1.00, 0.00, -0.00, -1.00, 769.3, 455.6)"> </text><text xml:space="preserve" font-family="GillSans-Light,Gill Sans" font-size="50.0" fill="#FEFFFF" transform="matrix(1.00, 0.00, -0.00, -1.00, 783.2, 455.6)">o</text><text xml:space="preserve" font-family="GillSans-Light,Gill Sans" font-size="50.0" fill="#FEFFFF" transform="matrix(1.00, 0.00, -0.00, -1.00, 810.3, 455.6)">f</text><text xml:space="preserve" font-family="GillSans-Light,Gill Sans" font-size="50.0" fill="#FEFFFF" transform="matrix(1.00, 0.00, -0.00, -1.00, 822.3, 455.6)"> </text><text xml:space="preserve" font-family="GillSans-Light,Gill Sans" font-size="50.0" fill="#FEFFFF" transform="matrix(1.00, 0.00, -0.00, -1.00, 836.2, 455.6)">t</text><text xml:space="preserve" font-family="GillSans-Light,Gill Sans" font-size="50.0" fill="#FEFFFF" transform="matrix(1.00, 0.00, -0.00, -1.00, 851.3, 455.6)">w</text><text xml:space="preserve" font-family="GillSans-Light,Gill Sans" font-size="50.0" fill="#FEFFFF" transform="matrix(1.00, 0.00, -0.00, -1.00, 886.7, 455.6)">i</text><text xml:space="preserve" font-family="GillSans-Light,Gill Sans" font-size="50.0" fill="#FEFFFF" transform="matrix(1.00, 0.00, -0.00, -1.00, 896.1, 455.6)">t</text><text xml:space="preserve" font-family="GillSans-Light,Gill Sans" font-size="50.0" fill="#FEFFFF" transform="matrix(1.00, 0.00, -0.00, -1.00, 911.2, 455.6)">t</text><text xml:space="preserve" font-family="GillSans-Light,Gill Sans" font-size="50.0" fill="#FEFFFF" transform="matrix(1.00, 0.00, -0.00, -1.00, 926.2, 455.6)">e</text><text xml:space="preserve" font-family="GillSans-Light,Gill Sans" font-size="50.0" fill="#FEFFFF" transform="matrix(1.00, 0.00, -0.00, -1.00, 950.2, 455.6)">r</text><text xml:space="preserve" font-family="GillSans-Light,Gill Sans" font-size="50.0" fill="#FEFFFF" transform="matrix(1.00, 0.00, -0.00, -1.00, 966.8, 455.6)"> </text><text xml:space="preserve" font-family="GillSans-Light,Gill Sans" font-size="50.0" fill="#FEFFFF" transform="matrix(1.00, 0.00, -0.00, -1.00, 722.9, 398.6)">u</text><text xml:space="preserve" font-family="GillSans-Light,Gill Sans" font-size="50.0" fill="#FEFFFF" transform="matrix(1.00, 0.00, -0.00, -1.00, 747.4, 398.6)">s</text><text xml:space="preserve" font-family="GillSans-Light,Gill Sans" font-size="50.0" fill="#FEFFFF" transform="matrix(1.00, 0.00, -0.00, -1.00, 765.1, 398.6)">e</text><text xml:space="preserve" font-family="GillSans-Light,Gill Sans" font-size="50.0" fill="#FEFFFF" transform="matrix(1.00, 0.00, -0.00, -1.00, 789.1, 398.6)">r</text><text xml:space="preserve" font-family="GillSans-Light,Gill Sans" font-size="50.0" fill="#FEFFFF" transform="matrix(1.00, 0.00, -0.00, -1.00, 807.7, 398.6)">s</text><text xml:space="preserve" font-family="GillSans-Light,Gill Sans" font-size="50.0" fill="#FEFFFF" transform="matrix(1.00, 0.00, -0.00, -1.00, 825.4, 398.6)"> </text><text xml:space="preserve" font-family="GillSans-Light,Gill Sans" font-size="50.0" fill="#FEFFFF" transform="matrix(1.00, 0.00, -0.00, -1.00, 839.3, 398.6)">t</text><text xml:space="preserve" font-family="GillSans-Light,Gill Sans" font-size="50.0" fill="#FEFFFF" transform="matrix(1.00, 0.00, -0.00, -1.00, 854.4, 398.6)">a</text><text xml:space="preserve" font-family="GillSans-Light,Gill Sans" font-size="50.0" fill="#FEFFFF" transform="matrix(1.00, 0.00, -0.00, -1.00, 875.7, 398.6)">l</text><text xml:space="preserve" font-family="GillSans-Light,Gill Sans" font-size="50.0" fill="#FEFFFF" transform="matrix(1.00, 0.00, -0.00, -1.00, 885.1, 398.6)">k</text><text xml:space="preserve" font-family="GillSans-Light,Gill Sans" font-size="50.0" fill="#FEFFFF" transform="matrix(1.00, 0.00, -0.00, -1.00, 906.4, 398.6)">i</text><text xml:space="preserve" font-family="GillSans-Light,Gill Sans" font-size="50.0" fill="#FEFFFF" transform="matrix(1.00, 0.00, -0.00, -1.00, 915.8, 398.6)">n</text><text xml:space="preserve" font-family="GillSans-Light,Gill Sans" font-size="50.0" fill="#FEFFFF" transform="matrix(1.00, 0.00, -0.00, -1.00, 940.4, 398.6)">g</text><text xml:space="preserve" font-family="GillSans-Light,Gill Sans" font-size="50.0" fill="#FEFFFF" transform="matrix(1.00, 0.00, -0.00, -1.00, 961.7, 398.6)"> </text><text xml:space="preserve" font-family="GillSans-Light,Gill Sans" font-size="50.0" fill="#FEFFFF" transform="matrix(1.00, 0.00, -0.00, -1.00, 718.3, 341.6)">a</text><text xml:space="preserve" font-family="GillSans-Light,Gill Sans" font-size="50.0" fill="#FEFFFF" transform="matrix(1.00, 0.00, -0.00, -1.00, 739.6, 341.6)">b</text><text xml:space="preserve" font-family="GillSans-Light,Gill Sans" font-size="50.0" fill="#FEFFFF" transform="matrix(1.00, 0.00, -0.00, -1.00, 765.1, 341.6)">o</text><text xml:space="preserve" font-family="GillSans-Light,Gill Sans" font-size="50.0" fill="#FEFFFF" transform="matrix(1.00, 0.00, -0.00, -1.00, 792.2, 341.6)">u</text><text xml:space="preserve" font-family="GillSans-Light,Gill Sans" font-size="50.0" fill="#FEFFFF" transform="matrix(1.00, 0.00, -0.00, -1.00, 816.7, 341.6)">t</text><text xml:space="preserve" font-family="GillSans-Light,Gill Sans" font-size="50.0" fill="#FEFFFF" transform="matrix(1.00, 0.00, -0.00, -1.00, 831.8, 341.6)"> </text><text xml:space="preserve" font-family="GillSans-Light,Gill Sans" font-size="50.0" fill="#FEFFFF" transform="matrix(1.00, 0.00, -0.00, -1.00, 845.6, 341.6)">a</text><text xml:space="preserve" font-family="GillSans-Light,Gill Sans" font-size="50.0" fill="#FEFFFF" transform="matrix(1.00, 0.00, -0.00, -1.00, 867.0, 341.6)">r</text><text xml:space="preserve" font-family="GillSans-Light,Gill Sans" font-size="50.0" fill="#FEFFFF" transform="matrix(1.00, 0.00, -0.00, -1.00, 887.6, 341.6)">t</text><text xml:space="preserve" font-family="GillSans-Light,Gill Sans" font-size="50.0" fill="#FEFFFF" transform="matrix(1.00, 0.00, -0.00, -1.00, 902.7, 341.6)">i</text><text xml:space="preserve" font-family="GillSans-Light,Gill Sans" font-size="50.0" fill="#FEFFFF" transform="matrix(1.00, 0.00, -0.00, -1.00, 912.1, 341.6)">c</text><text xml:space="preserve" font-family="GillSans-Light,Gill Sans" font-size="50.0" fill="#FEFFFF" transform="matrix(1.00, 0.00, -0.00, -1.00, 933.0, 341.6)">l</text><text xml:space="preserve" font-family="GillSans-Light,Gill Sans" font-size="50.0" fill="#FEFFFF" transform="matrix(1.00, 0.00, -0.00, -1.00, 942.4, 341.6)">e</text></g></g><path d="M 1465.0 518.0 L 1770.0 518.0 L 1770.0 295.0 L 1465.0 295.0 Z M 1464.9 518.2 " fill="#D99719"></path><g><clipPath id="clip0x608000abe060"><path d="M 1456.3 295.1 L 1778.3 295.1 L 1778.3 518.2 L 1456.3 518.2 Z M 1456.3 295.1 "></path></clipPath><g clip-path="url(#clip0x608000abe060)"><text xml:space="preserve" font-family="GillSans-Light,Gill Sans" font-size="50.0" fill="#FEFFFF" transform="matrix(1.00, 0.00, -0.00, -1.00, 1509.1, 447.5)">l</text><text xml:space="preserve" font-family="GillSans-Light,Gill Sans" font-size="50.0" fill="#FEFFFF" transform="matrix(1.00, 0.00, -0.00, -1.00, 1518.5, 447.5)">i</text><text xml:space="preserve" font-family="GillSans-Light,Gill Sans" font-size="50.0" fill="#FEFFFF" transform="matrix(1.00, 0.00, -0.00, -1.00, 1527.9, 447.5)">s</text><text xml:space="preserve" font-family="GillSans-Light,Gill Sans" font-size="50.0" fill="#FEFFFF" transform="matrix(1.00, 0.00, -0.00, -1.00, 1545.6, 447.5)">t</text><text xml:space="preserve" font-family="GillSans-Light,Gill Sans" font-size="50.0" fill="#FEFFFF" transform="matrix(1.00, 0.00, -0.00, -1.00, 1560.7, 447.5)"> </text><text xml:space="preserve" font-family="GillSans-Light,Gill Sans" font-size="50.0" fill="#FEFFFF" transform="matrix(1.00, 0.00, -0.00, -1.00, 1574.6, 447.5)">o</text><text xml:space="preserve" font-family="GillSans-Light,Gill Sans" font-size="50.0" fill="#FEFFFF" transform="matrix(1.00, 0.00, -0.00, -1.00, 1601.7, 447.5)">f</text><text xml:space="preserve" font-family="GillSans-Light,Gill Sans" font-size="50.0" fill="#FEFFFF" transform="matrix(1.00, 0.00, -0.00, -1.00, 1613.7, 447.5)"> </text><text xml:space="preserve" font-family="GillSans-Light,Gill Sans" font-size="50.0" fill="#FEFFFF" transform="matrix(1.00, 0.00, -0.00, -1.00, 1627.6, 447.5)">t</text><text xml:space="preserve" font-family="GillSans-Light,Gill Sans" font-size="50.0" fill="#FEFFFF" transform="matrix(1.00, 0.00, -0.00, -1.00, 1642.6, 447.5)">o</text><text xml:space="preserve" font-family="GillSans-Light,Gill Sans" font-size="50.0" fill="#FEFFFF" transform="matrix(1.00, 0.00, -0.00, -1.00, 1669.7, 447.5)">p</text><text xml:space="preserve" font-family="GillSans-Light,Gill Sans" font-size="50.0" fill="#FEFFFF" transform="matrix(1.00, 0.00, -0.00, -1.00, 1695.2, 447.5)">i</text><text xml:space="preserve" font-family="GillSans-Light,Gill Sans" font-size="50.0" fill="#FEFFFF" transform="matrix(1.00, 0.00, -0.00, -1.00, 1704.6, 447.5)">c</text><text xml:space="preserve" font-family="GillSans-Light,Gill Sans" font-size="50.0" fill="#FEFFFF" transform="matrix(1.00, 0.00, -0.00, -1.00, 1725.5, 447.5)"> </text><text xml:space="preserve" font-family="GillSans-Light,Gill Sans" font-size="50.0" fill="#FEFFFF" transform="matrix(1.00, 0.00, -0.00, -1.00, 1526.5, 390.5)">u</text><text xml:space="preserve" font-family="GillSans-Light,Gill Sans" font-size="50.0" fill="#FEFFFF" transform="matrix(1.00, 0.00, -0.00, -1.00, 1551.0, 390.5)">s</text><text xml:space="preserve" font-family="GillSans-Light,Gill Sans" font-size="50.0" fill="#FEFFFF" transform="matrix(1.00, 0.00, -0.00, -1.00, 1568.7, 390.5)">e</text><text xml:space="preserve" font-family="GillSans-Light,Gill Sans" font-size="50.0" fill="#FEFFFF" transform="matrix(1.00, 0.00, -0.00, -1.00, 1592.7, 390.5)">r</text><text xml:space="preserve" font-family="GillSans-Light,Gill Sans" font-size="50.0" fill="#FEFFFF" transform="matrix(1.00, 0.00, -0.00, -1.00, 1609.3, 390.5)"> </text><text xml:space="preserve" font-family="GillSans-Light,Gill Sans" font-size="50.0" fill="#FEFFFF" transform="matrix(1.00, 0.00, -0.00, -1.00, 1623.2, 390.5)">t</text><text xml:space="preserve" font-family="GillSans-Light,Gill Sans" font-size="50.0" fill="#FEFFFF" transform="matrix(1.00, 0.00, -0.00, -1.00, 1638.3, 390.5)">a</text><text xml:space="preserve" font-family="GillSans-Light,Gill Sans" font-size="50.0" fill="#FEFFFF" transform="matrix(1.00, 0.00, -0.00, -1.00, 1659.6, 390.5)">l</text><text xml:space="preserve" font-family="GillSans-Light,Gill Sans" font-size="50.0" fill="#FEFFFF" transform="matrix(1.00, 0.00, -0.00, -1.00, 1669.0, 390.5)">k</text><text xml:space="preserve" font-family="GillSans-Light,Gill Sans" font-size="50.0" fill="#FEFFFF" transform="matrix(1.00, 0.00, -0.00, -1.00, 1690.4, 390.5)">s</text><text xml:space="preserve" font-family="GillSans-Light,Gill Sans" font-size="50.0" fill="#FEFFFF" transform="matrix(1.00, 0.00, -0.00, -1.00, 1708.1, 390.5)"> </text><text xml:space="preserve" font-family="GillSans-Light,Gill Sans" font-size="50.0" fill="#FEFFFF" transform="matrix(1.00, 0.00, -0.00, -1.00, 1560.5, 333.5)">a</text><text xml:space="preserve" font-family="GillSans-Light,Gill Sans" font-size="50.0" fill="#FEFFFF" transform="matrix(1.00, 0.00, -0.00, -1.00, 1581.9, 333.5)">b</text><text xml:space="preserve" font-family="GillSans-Light,Gill Sans" font-size="50.0" fill="#FEFFFF" transform="matrix(1.00, 0.00, -0.00, -1.00, 1607.4, 333.5)">o</text><text xml:space="preserve" font-family="GillSans-Light,Gill Sans" font-size="50.0" fill="#FEFFFF" transform="matrix(1.00, 0.00, -0.00, -1.00, 1634.5, 333.5)">u</text><text xml:space="preserve" font-family="GillSans-Light,Gill Sans" font-size="50.0" fill="#FEFFFF" transform="matrix(1.00, 0.00, -0.00, -1.00, 1659.0, 333.5)">t</text></g></g><path d="M 1017.0 526.0 L 1322.0 526.0 L 1322.0 303.0 L 1017.0 303.0 Z M 1017.5 526.3 " fill="#D99719"></path><g><clipPath id="clip0x608000ca73e0"><path d="M 1008.9 303.2 L 1330.8 303.2 L 1330.8 526.3 L 1008.9 526.3 Z M 1008.9 303.2 "></path></clipPath><g clip-path="url(#clip0x608000ca73e0)"><text xml:space="preserve" font-family="GillSans-Light,Gill Sans" font-size="50.0" fill="#FEFFFF" transform="matrix(1.00, 0.00, -0.00, -1.00, 1058.0, 426.6)">t</text><text xml:space="preserve" font-family="GillSans-Light,Gill Sans" font-size="50.0" fill="#FEFFFF" transform="matrix(1.00, 0.00, -0.00, -1.00, 1073.0, 426.6)">o</text><text xml:space="preserve" font-family="GillSans-Light,Gill Sans" font-size="50.0" fill="#FEFFFF" transform="matrix(1.00, 0.00, -0.00, -1.00, 1100.1, 426.6)">p</text><text xml:space="preserve" font-family="GillSans-Light,Gill Sans" font-size="50.0" fill="#FEFFFF" transform="matrix(1.00, 0.00, -0.00, -1.00, 1125.6, 426.6)">i</text><text xml:space="preserve" font-family="GillSans-Light,Gill Sans" font-size="50.0" fill="#FEFFFF" transform="matrix(1.00, 0.00, -0.00, -1.00, 1135.0, 426.6)">c</text><text xml:space="preserve" font-family="GillSans-Light,Gill Sans" font-size="50.0" fill="#FEFFFF" transform="matrix(1.00, 0.00, -0.00, -1.00, 1155.9, 426.6)">s</text><text xml:space="preserve" font-family="GillSans-Light,Gill Sans" font-size="50.0" fill="#FEFFFF" transform="matrix(1.00, 0.00, -0.00, -1.00, 1173.6, 426.6)"> </text><text xml:space="preserve" font-family="GillSans-Light,Gill Sans" font-size="50.0" fill="#FEFFFF" transform="matrix(1.00, 0.00, -0.00, -1.00, 1187.4, 426.6)">f</text><text xml:space="preserve" font-family="GillSans-Light,Gill Sans" font-size="50.0" fill="#FEFFFF" transform="matrix(1.00, 0.00, -0.00, -1.00, 1199.5, 426.6)">r</text><text xml:space="preserve" font-family="GillSans-Light,Gill Sans" font-size="50.0" fill="#FEFFFF" transform="matrix(1.00, 0.00, -0.00, -1.00, 1216.1, 426.6)">o</text><text xml:space="preserve" font-family="GillSans-Light,Gill Sans" font-size="50.0" fill="#FEFFFF" transform="matrix(1.00, 0.00, -0.00, -1.00, 1243.2, 426.6)">m</text><text xml:space="preserve" font-family="GillSans-Light,Gill Sans" font-size="50.0" fill="#FEFFFF" transform="matrix(1.00, 0.00, -0.00, -1.00, 1281.8, 426.6)"> </text><text xml:space="preserve" font-family="GillSans-Light,Gill Sans" font-size="50.0" fill="#FEFFFF" transform="matrix(1.00, 0.00, -0.00, -1.00, 1109.5, 369.6)">a</text><text xml:space="preserve" font-family="GillSans-Light,Gill Sans" font-size="50.0" fill="#FEFFFF" transform="matrix(1.00, 0.00, -0.00, -1.00, 1130.9, 369.6)">r</text><text xml:space="preserve" font-family="GillSans-Light,Gill Sans" font-size="50.0" fill="#FEFFFF" transform="matrix(1.00, 0.00, -0.00, -1.00, 1151.5, 369.6)">t</text><text xml:space="preserve" font-family="GillSans-Light,Gill Sans" font-size="50.0" fill="#FEFFFF" transform="matrix(1.00, 0.00, -0.00, -1.00, 1166.6, 369.6)">i</text><text xml:space="preserve" font-family="GillSans-Light,Gill Sans" font-size="50.0" fill="#FEFFFF" transform="matrix(1.00, 0.00, -0.00, -1.00, 1176.0, 369.6)">c</text><text xml:space="preserve" font-family="GillSans-Light,Gill Sans" font-size="50.0" fill="#FEFFFF" transform="matrix(1.00, 0.00, -0.00, -1.00, 1196.8, 369.6)">l</text><text xml:space="preserve" font-family="GillSans-Light,Gill Sans" font-size="50.0" fill="#FEFFFF" transform="matrix(1.00, 0.00, -0.00, -1.00, 1206.2, 369.6)">e</text></g></g><path d="M -0.1 -0.1 L 1018.9 -0.1 " fill="none" stroke="#595E5D" stroke-width="10.00" transform="matrix(1.00, 0.00, 0.00, -1.00, 594.1, 578.9)"></path><path d="M -0.1 0.3 L 44.4 0.3 L 49.9 0.3 " fill="none" stroke="#595E5D" stroke-width="10.00" transform="matrix(0.00, -1.00, -1.00, 0.00, 1613.3, 582.9)"></path><path d="M 1593.8 538.0 L 1613.0 499.6 L 1632.2 538.0 Z M 1593.8 538.0 " fill="#595E5D"></path><path d="M -0.4 0.5 L 429.1 0.5 L 434.6 0.5 " fill="none" stroke="#595E5D" stroke-width="10.00" transform="matrix(0.00, -1.00, -1.00, 0.00, 409.5, 643.6)"></path><path d="M 389.8 214.0 L 409.0 175.6 L 428.2 214.0 Z M 389.8 214.0 " fill="#595E5D"></path><path d="M -0.4 -0.2 L 105.1 -0.2 L 110.6 -0.2 " fill="none" stroke="#595E5D" stroke-width="10.00" transform="matrix(0.00, -1.00, -1.00, 0.00, 1125.8, 643.6)"></path><path d="M 1106.8 538.0 L 1126.0 499.6 L 1145.2 538.0 Z M 1106.8 538.0 " fill="#595E5D"></path><path d="M -0.4 0.3 L 105.1 0.3 L 110.6 0.3 " fill="none" stroke="#595E5D" stroke-width="10.00" transform="matrix(0.00, -1.00, -1.00, 0.00, 883.3, 643.6)"></path><path d="M 863.8 538.0 L 883.0 499.6 L 902.2 538.0 Z M 863.8 538.0 " fill="#595E5D"></path><path d="M 0.4 0.4 L 105.1 0.4 L 110.4 0.4 " fill="none" stroke="#595E5D" stroke-width="10.00" transform="matrix(0.00, -1.00, -1.00, 0.00, 1026.4, 902.4)"></path><path d="M 1006.8 797.0 L 1026.0 758.6 L 1045.2 797.0 Z M 1006.8 797.0 " fill="#595E5D"></path><path d="M 868.0 942.0 L 1185.0 942.0 L 1185.0 842.0 L 868.0 842.0 Z M 868.1 942.5 " fill="#D99719"></path><g><clipPath id="clip0x608000ab0b60"><path d="M 859.6 841.8 L 1193.2 841.8 L 1193.2 942.5 L 859.6 942.5 Z M 859.6 841.8 "></path></clipPath><g clip-path="url(#clip0x608000ab0b60)"><text xml:space="preserve" font-family="GillSans-Light,Gill Sans" font-size="50.0" fill="#FEFFFF" transform="matrix(1.00, 0.00, -0.00, -1.00, 973.5, 875.8)">L</text><text xml:space="preserve" font-family="GillSans-Light,Gill Sans" font-size="50.0" fill="#FEFFFF" transform="matrix(1.00, 0.00, -0.00, -1.00, 996.9, 875.8)">o</text><text xml:space="preserve" font-family="GillSans-Light,Gill Sans" font-size="50.0" fill="#FEFFFF" transform="matrix(1.00, 0.00, -0.00, -1.00, 1024.0, 875.8)">g</text><text xml:space="preserve" font-family="GillSans-Light,Gill Sans" font-size="50.0" fill="#FEFFFF" transform="matrix(1.00, 0.00, -0.00, -1.00, 1045.4, 875.8)">i</text><text xml:space="preserve" font-family="GillSans-Light,Gill Sans" font-size="50.0" fill="#FEFFFF" transform="matrix(1.00, 0.00, -0.00, -1.00, 1054.8, 875.8)">n</text></g></g><path d="M 825.0 145.0 L 1013.0 145.0 L 1013.0 63.0 L 825.0 63.0 Z M 824.8 145.3 " fill="#7F8685"></path><g><clipPath id="clip0x608000ea9f60"><path d="M 816.2 61.5 L 1021.3 61.5 L 1021.3 146.9 L 816.2 146.9 Z M 816.2 61.5 "></path></clipPath><g clip-path="url(#clip0x608000ea9f60)"><text xml:space="preserve" font-family="GillSans-Light,Gill Sans" font-size="50.0" fill="#FEFFFF" transform="matrix(1.00, 0.00, -0.00, -1.00, 847.1, 87.6)">m</text><text xml:space="preserve" font-family="GillSans-Light,Gill Sans" font-size="50.0" fill="#FEFFFF" transform="matrix(1.00, 0.00, -0.00, -1.00, 885.6, 87.6)">e</text><text xml:space="preserve" font-family="GillSans-Light,Gill Sans" font-size="50.0" fill="#FEFFFF" transform="matrix(1.00, 0.00, -0.00, -1.00, 909.6, 87.6)">t</text><text xml:space="preserve" font-family="GillSans-Light,Gill Sans" font-size="50.0" fill="#FEFFFF" transform="matrix(1.00, 0.00, -0.00, -1.00, 924.6, 87.6)">r</text><text xml:space="preserve" font-family="GillSans-Light,Gill Sans" font-size="50.0" fill="#FEFFFF" transform="matrix(1.00, 0.00, -0.00, -1.00, 942.5, 87.6)">i</text><text xml:space="preserve" font-family="GillSans-Light,Gill Sans" font-size="50.0" fill="#FEFFFF" transform="matrix(1.00, 0.00, -0.00, -1.00, 951.9, 87.6)">c</text><text xml:space="preserve" font-family="GillSans-Light,Gill Sans" font-size="50.0" fill="#FEFFFF" transform="matrix(1.00, 0.00, -0.00, -1.00, 972.8, 87.6)">s</text></g></g><path d="M 584.0 145.0 L 802.0 145.0 L 802.0 63.0 L 584.0 63.0 Z M 583.9 145.3 " fill="#7F8685"></path><g><clipPath id="clip0x6080008a63c0"><path d="M 575.4 61.5 L 810.6 61.5 L 810.6 146.9 L 575.4 146.9 Z M 575.4 61.5 "></path></clipPath><g clip-path="url(#clip0x6080008a63c0)"><text xml:space="preserve" font-family="GillSans-Light,Gill Sans" font-size="50.0" fill="#FEFFFF" transform="matrix(1.00, 0.00, -0.00, -1.00, 599.9, 87.6)">a</text><text xml:space="preserve" font-family="GillSans-Light,Gill Sans" font-size="50.0" fill="#FEFFFF" transform="matrix(1.00, 0.00, -0.00, -1.00, 621.2, 87.6)">r</text><text xml:space="preserve" font-family="GillSans-Light,Gill Sans" font-size="50.0" fill="#FEFFFF" transform="matrix(1.00, 0.00, -0.00, -1.00, 641.9, 87.6)">t</text><text xml:space="preserve" font-family="GillSans-Light,Gill Sans" font-size="50.0" fill="#FEFFFF" transform="matrix(1.00, 0.00, -0.00, -1.00, 657.0, 87.6)">i</text><text xml:space="preserve" font-family="GillSans-Light,Gill Sans" font-size="50.0" fill="#FEFFFF" transform="matrix(1.00, 0.00, -0.00, -1.00, 666.4, 87.6)">c</text><text xml:space="preserve" font-family="GillSans-Light,Gill Sans" font-size="50.0" fill="#FEFFFF" transform="matrix(1.00, 0.00, -0.00, -1.00, 687.2, 87.6)">l</text><text xml:space="preserve" font-family="GillSans-Light,Gill Sans" font-size="50.0" fill="#FEFFFF" transform="matrix(1.00, 0.00, -0.00, -1.00, 696.6, 87.6)">e</text><text xml:space="preserve" font-family="GillSans-Light,Gill Sans" font-size="50.0" fill="#FEFFFF" transform="matrix(1.00, 0.00, -0.00, -1.00, 720.6, 87.6)"> </text><text xml:space="preserve" font-family="GillSans-Light,Gill Sans" font-size="50.0" fill="#FEFFFF" transform="matrix(1.00, 0.00, -0.00, -1.00, 734.4, 87.6)">l</text><text xml:space="preserve" font-family="GillSans-Light,Gill Sans" font-size="50.0" fill="#FEFFFF" transform="matrix(1.00, 0.00, -0.00, -1.00, 743.8, 87.6)">i</text><text xml:space="preserve" font-family="GillSans-Light,Gill Sans" font-size="50.0" fill="#FEFFFF" transform="matrix(1.00, 0.00, -0.00, -1.00, 753.2, 87.6)">s</text><text xml:space="preserve" font-family="GillSans-Light,Gill Sans" font-size="50.0" fill="#FEFFFF" transform="matrix(1.00, 0.00, -0.00, -1.00, 770.9, 87.6)">t</text></g></g><path d="M -0.5 0.3 L 105.1 0.3 L 110.5 0.3 " fill="none" stroke="#595E5D" stroke-width="10.00" transform="matrix(0.00, -1.00, -1.00, 0.00, 1613.3, 646.5)"></path><path d="M 1593.8 541.0 L 1613.0 502.6 L 1632.2 541.0 Z M 1593.8 541.0 " fill="#595E5D"></path><path d="M 1036.0 145.0 L 1436.0 145.0 L 1436.0 63.0 L 1036.0 63.0 Z M 1035.5 145.3 " fill="#7F8685"></path><g><clipPath id="clip0x608000abb420"><path d="M 1027.0 61.5 L 1444.7 61.5 L 1444.7 146.9 L 1027.0 146.9 Z M 1027.0 61.5 "></path></clipPath><g clip-path="url(#clip0x608000abb420)"><text xml:space="preserve" font-family="GillSans-Light,Gill Sans" font-size="50.0" fill="#FEFFFF" transform="matrix(1.00, 0.00, -0.00, -1.00, 1053.0, 87.6)">e</text><text xml:space="preserve" font-family="GillSans-Light,Gill Sans" font-size="50.0" fill="#FEFFFF" transform="matrix(1.00, 0.00, -0.00, -1.00, 1077.0, 87.6)">x</text><text xml:space="preserve" font-family="GillSans-Light,Gill Sans" font-size="50.0" fill="#FEFFFF" transform="matrix(1.00, 0.00, -0.00, -1.00, 1100.9, 87.6)">t</text><text xml:space="preserve" font-family="GillSans-Light,Gill Sans" font-size="50.0" fill="#FEFFFF" transform="matrix(1.00, 0.00, -0.00, -1.00, 1116.0, 87.6)">e</text><text xml:space="preserve" font-family="GillSans-Light,Gill Sans" font-size="50.0" fill="#FEFFFF" transform="matrix(1.00, 0.00, -0.00, -1.00, 1140.0, 87.6)">n</text><text xml:space="preserve" font-family="GillSans-Light,Gill Sans" font-size="50.0" fill="#FEFFFF" transform="matrix(1.00, 0.00, -0.00, -1.00, 1164.5, 87.6)">d</text><text xml:space="preserve" font-family="GillSans-Light,Gill Sans" font-size="50.0" fill="#FEFFFF" transform="matrix(1.00, 0.00, -0.00, -1.00, 1190.0, 87.6)">e</text><text xml:space="preserve" font-family="GillSans-Light,Gill Sans" font-size="50.0" fill="#FEFFFF" transform="matrix(1.00, 0.00, -0.00, -1.00, 1213.9, 87.6)">d</text><text xml:space="preserve" font-family="GillSans-Light,Gill Sans" font-size="50.0" fill="#FEFFFF" transform="matrix(1.00, 0.00, -0.00, -1.00, 1239.4, 87.6)"> </text><text xml:space="preserve" font-family="GillSans-Light,Gill Sans" font-size="50.0" fill="#FEFFFF" transform="matrix(1.00, 0.00, -0.00, -1.00, 1253.3, 87.6)">n</text><text xml:space="preserve" font-family="GillSans-Light,Gill Sans" font-size="50.0" fill="#FEFFFF" transform="matrix(1.00, 0.00, -0.00, -1.00, 1277.8, 87.6)">e</text><text xml:space="preserve" font-family="GillSans-Light,Gill Sans" font-size="50.0" fill="#FEFFFF" transform="matrix(1.00, 0.00, -0.00, -1.00, 1301.8, 87.6)">t</text><text xml:space="preserve" font-family="GillSans-Light,Gill Sans" font-size="50.0" fill="#FEFFFF" transform="matrix(1.00, 0.00, -0.00, -1.00, 1316.8, 87.6)">w</text><text xml:space="preserve" font-family="GillSans-Light,Gill Sans" font-size="50.0" fill="#FEFFFF" transform="matrix(1.00, 0.00, -0.00, -1.00, 1351.5, 87.6)">o</text><text xml:space="preserve" font-family="GillSans-Light,Gill Sans" font-size="50.0" fill="#FEFFFF" transform="matrix(1.00, 0.00, -0.00, -1.00, 1378.6, 87.6)">r</text><text xml:space="preserve" font-family="GillSans-Light,Gill Sans" font-size="50.0" fill="#FEFFFF" transform="matrix(1.00, 0.00, -0.00, -1.00, 1397.2, 87.6)">k</text></g></g><path d="M 1459.0 145.0 L 1553.0 145.0 L 1553.0 63.0 L 1459.0 63.0 Z M 1458.9 145.3 " fill="#7F8685"></path><g><clipPath id="clip0x608000ea74a0"><path d="M 1450.3 61.5 L 1561.7 61.5 L 1561.7 146.9 L 1450.3 146.9 Z M 1450.3 61.5 "></path></clipPath><g clip-path="url(#clip0x608000ea74a0)"><text xml:space="preserve" font-family="GillSans-Light,Gill Sans" font-size="50.0" fill="#FEFFFF" transform="matrix(1.00, 0.00, -0.00, -1.00, 1481.0, 87.6)">…</text></g></g></g></svg>